<svg xmlns="http://www.w3.org/2000/svg" xmlns:xlink="http://www.w3.org/1999/xlink" width="223" height="56" viewBox="0 0 223 56">
  <defs>
    <clipPath id="clip-path">
      <rect id="Rectangle_439" data-name="Rectangle 439" width="223" height="56" transform="translate(5665 -3556)" fill="#fff" stroke="#707070" stroke-width="1"/>
    </clipPath>
  </defs>
  <g id="PenIcon" transform="translate(-5665 3556)" clip-path="url(#clip-path)">
    <g id="Group_448" data-name="Group 448" transform="translate(14 -3)">
      <g id="Group_447" data-name="Group 447" transform="translate(261.362 155.522)" opacity="0.09">
        <g id="Group_420" data-name="Group 420" transform="translate(5422.382 -3649.36) rotate(-135)">
          <path id="Path_76" data-name="Path 76" d="M35.493,16.308a5.705,5.705,0,0,1,0,8.071L22.707,37.166,11.352,25.814,0,14.459,12.786,1.672a5.705,5.705,0,0,1,8.071,0Z" transform="translate(0 0)" fill="#447b85"/>
        </g>
        <g id="Group_421" data-name="Group 421" transform="translate(5505.48 -3602.769) rotate(-135)">
          <path id="Path_77" data-name="Path 77" d="M114.411,11.352,11.352,114.411,0,103.059,103.055,0Z" transform="translate(0 0)" fill="#447b85"/>
        </g>
        <g id="Group_422" data-name="Group 422" transform="translate(5505.48 -3586.71) rotate(-135)">
          <path id="Path_78" data-name="Path 78" d="M103.059,0l11.352,11.355L11.355,114.414h0L0,103.059Z" transform="translate(0 0)" fill="#447b85"/>
        </g>
        <g id="Group_423" data-name="Group 423" transform="translate(5582.912 -3655.025) rotate(-135)">
          <path id="Path_79" data-name="Path 79" d="M29.153,22.707,6.191,29.153,0,22.962,6.446,0,17.8,11.355h0Z" transform="translate(0 0)" fill="#447b85"/>
        </g>
        <g id="Group_424" data-name="Group 424" transform="translate(5600.854 -3669.556) rotate(-135)">
          <path id="Path_80" data-name="Path 80" d="M8.6,6.191,0,8.6,2.413,0Z" transform="translate(0)" fill="#447b85"/>
        </g>
        <g id="Group_426" data-name="Group 426" transform="translate(5594.59 -3670.076) rotate(-135)">
          <path id="Path_81" data-name="Path 81" d="M3.8,14.059a3.806,3.806,0,0,1-1.027-7.47L25.74.143A3.806,3.806,0,1,1,27.8,7.471L4.835,13.917A3.818,3.818,0,0,1,3.8,14.059Z" transform="translate(0)" fill="#447b85"/>
        </g>
        <g id="Group_427" data-name="Group 427" transform="translate(5582.912 -3649.643) rotate(-135)">
          <path id="Path_82" data-name="Path 82" d="M3.808,30.575A3.809,3.809,0,0,1,.142,25.739L6.589,2.777a3.806,3.806,0,0,1,7.328,2.057L7.47,27.8A3.808,3.808,0,0,1,3.808,30.575Z" transform="translate(0)" fill="#447b85"/>
        </g>
        <g id="Group_428" data-name="Group 428" transform="translate(5505.48 -3597.387) rotate(-135)">
          <path id="Path_83" data-name="Path 83" d="M3.805,110.67a3.805,3.805,0,0,1-2.691-6.5L104.17,1.115A3.805,3.805,0,1,1,109.552,6.5L6.5,109.555A3.792,3.792,0,0,1,3.805,110.67Z" transform="translate(0 0)" fill="#447b85"/>
        </g>
        <g id="Group_429" data-name="Group 429" transform="translate(5505.48 -3581.328) rotate(-135)">
          <path id="Path_84" data-name="Path 84" d="M26.512,133.377a3.806,3.806,0,0,1-2.691-1.115L12.57,121.011c-.035-.033-.07-.066-.1-.1L1.114,109.555a3.805,3.805,0,0,1,0-5.381L104.173,1.115A3.806,3.806,0,0,1,109.556,6.5L9.187,106.865l8.561,8.564c.035.033.07.066.1.1l8.66,8.661L126.881,23.822a3.806,3.806,0,1,1,5.382,5.382L29.2,132.263A3.808,3.808,0,0,1,26.512,133.377Z" transform="translate(0 0)" fill="#447b85"/>
        </g>
        <g id="Group_430" data-name="Group 430" transform="translate(5422.382 -3643.978) rotate(-135)">
          <path id="Path_85" data-name="Path 85" d="M26.512,44.777a3.794,3.794,0,0,1-2.69-1.114L1.114,20.955a3.806,3.806,0,0,1,0-5.381L13.9,2.787a9.51,9.51,0,0,1,13.453,0L41.99,17.423a9.511,9.511,0,0,1,0,13.455L29.2,43.662A3.8,3.8,0,0,1,26.512,44.777ZM9.187,18.265,26.512,35.59l10.1-10.1a1.9,1.9,0,0,0,0-2.69L21.972,8.169a1.9,1.9,0,0,0-2.687,0Z" transform="translate(0 0)" fill="#447b85"/>
        </g>
        <g id="Group_431" data-name="Group 431" transform="translate(5600.854 -3664.174) rotate(-135)">
          <path id="Path_86" data-name="Path 86" d="M3.806,16.215A3.805,3.805,0,0,1,.141,11.382l2.413-8.6A3.805,3.805,0,0,1,8.909,1.114L15.1,7.306a3.805,3.805,0,0,1-1.664,6.355l-8.6,2.413A3.784,3.784,0,0,1,3.806,16.215Z" transform="translate(0)" fill="#447b85"/>
        </g>
      </g>
      <g id="Group_446" data-name="Group 446" transform="translate(254.362 150.522)">
        <g id="Group_420-2" data-name="Group 420" transform="translate(5422.382 -3649.36) rotate(-135)">
          <path id="Path_76-2" data-name="Path 76" d="M35.493,16.308a5.705,5.705,0,0,1,0,8.071L22.707,37.166,11.352,25.814,0,14.459,12.786,1.672a5.705,5.705,0,0,1,8.071,0Z" transform="translate(0 0)" fill="#f5c1b7"/>
        </g>
        <g id="Group_421-2" data-name="Group 421" transform="translate(5505.48 -3602.769) rotate(-135)">
          <path id="Path_77-2" data-name="Path 77" d="M114.411,11.352,11.352,114.411,0,103.059,103.055,0Z" transform="translate(0 0)" fill="#f5c1b7"/>
        </g>
        <g id="Group_422-2" data-name="Group 422" transform="translate(5505.48 -3586.71) rotate(-135)">
          <path id="Path_78-2" data-name="Path 78" d="M103.059,0l11.352,11.355L11.355,114.414h0L0,103.059Z" transform="translate(0 0)" fill="#f5c1b7"/>
        </g>
        <g id="Group_423-2" data-name="Group 423" transform="translate(5582.912 -3655.025) rotate(-135)">
          <path id="Path_79-2" data-name="Path 79" d="M29.153,22.707,6.191,29.153,0,22.962,6.446,0,17.8,11.355h0Z" transform="translate(0 0)" fill="#f5c1b7"/>
        </g>
        <g id="Group_424-2" data-name="Group 424" transform="translate(5600.854 -3669.556) rotate(-135)">
          <path id="Path_80-2" data-name="Path 80" d="M8.6,6.191,0,8.6,2.413,0Z" transform="translate(0)"/>
        </g>
        <g id="Group_426-2" data-name="Group 426" transform="translate(5594.59 -3670.076) rotate(-135)">
          <path id="Path_81-2" data-name="Path 81" d="M3.8,14.059a3.806,3.806,0,0,1-1.027-7.47L25.74.143A3.806,3.806,0,1,1,27.8,7.471L4.835,13.917A3.818,3.818,0,0,1,3.8,14.059Z" transform="translate(0)" fill="#447b85"/>
        </g>
        <g id="Group_427-2" data-name="Group 427" transform="translate(5582.912 -3649.643) rotate(-135)">
          <path id="Path_82-2" data-name="Path 82" d="M3.808,30.575A3.809,3.809,0,0,1,.142,25.739L6.589,2.777a3.806,3.806,0,0,1,7.328,2.057L7.47,27.8A3.808,3.808,0,0,1,3.808,30.575Z" transform="translate(0)" fill="#447b85"/>
        </g>
        <g id="Group_428-2" data-name="Group 428" transform="translate(5505.48 -3597.387) rotate(-135)">
          <path id="Path_83-2" data-name="Path 83" d="M3.805,110.67a3.805,3.805,0,0,1-2.691-6.5L104.17,1.115A3.805,3.805,0,1,1,109.552,6.5L6.5,109.555A3.792,3.792,0,0,1,3.805,110.67Z" transform="translate(0 0)" fill="#447b85"/>
        </g>
        <g id="Group_429-2" data-name="Group 429" transform="translate(5505.48 -3581.328) rotate(-135)">
          <path id="Path_84-2" data-name="Path 84" d="M26.512,133.377a3.806,3.806,0,0,1-2.691-1.115L12.57,121.011c-.035-.033-.07-.066-.1-.1L1.114,109.555a3.805,3.805,0,0,1,0-5.381L104.173,1.115A3.806,3.806,0,0,1,109.556,6.5L9.187,106.865l8.561,8.564c.035.033.07.066.1.1l8.66,8.661L126.881,23.822a3.806,3.806,0,1,1,5.382,5.382L29.2,132.263A3.808,3.808,0,0,1,26.512,133.377Z" transform="translate(0 0)" fill="#447b85"/>
        </g>
        <g id="Group_430-2" data-name="Group 430" transform="translate(5422.382 -3643.978) rotate(-135)">
          <path id="Path_85-2" data-name="Path 85" d="M26.512,44.777a3.794,3.794,0,0,1-2.69-1.114L1.114,20.955a3.806,3.806,0,0,1,0-5.381L13.9,2.787a9.51,9.51,0,0,1,13.453,0L41.99,17.423a9.511,9.511,0,0,1,0,13.455L29.2,43.662A3.8,3.8,0,0,1,26.512,44.777ZM9.187,18.265,26.512,35.59l10.1-10.1a1.9,1.9,0,0,0,0-2.69L21.972,8.169a1.9,1.9,0,0,0-2.687,0Z" transform="translate(0 0)" fill="#447b85"/>
        </g>
        <g id="Group_431-2" data-name="Group 431" transform="translate(5600.854 -3664.174) rotate(-135)">
          <path id="Path_86-2" data-name="Path 86" d="M3.806,16.215A3.805,3.805,0,0,1,.141,11.382l2.413-8.6A3.805,3.805,0,0,1,8.909,1.114L15.1,7.306a3.805,3.805,0,0,1-1.664,6.355l-8.6,2.413A3.784,3.784,0,0,1,3.806,16.215Z" transform="translate(0)" fill="#447b85"/>
        </g>
      </g>
    </g>
  </g>
</svg>
